HIERARCHY
ROOT hips
{
  OFFSET 0 11.86390953 0.3628582958
  CHANNELS 6 Xposition Yposition Zposition Yrotation Xrotation Zrotation
  JOINT spine
  {
    OFFSET 0 0.05383551117999996 0
    CHANNELS 3 Yrotation Xrotation Zrotation
    JOINT chest
    {
      OFFSET 0 0.6394558760401424 0
      CHANNELS 3 Yrotation Xrotation Zrotation
      JOINT neck
      {
        OFFSET 0 2.720089088562982 0
        CHANNELS 3 Yrotation Xrotation Zrotation
        JOINT head
        {
          OFFSET 0 0.37880844870545777 0
          CHANNELS 3 Yrotation Xrotation Zrotation
          JOINT rightEye
          {
            OFFSET -0.42867780714 0.7547055649100001 0.7381831347
            CHANNELS 3 Yrotation Xrotation Zrotation
            End Site
            {
              OFFSET -0.42867780714 0.7547055649100001 0.7381831347
            }
          }
          JOINT leftEye
          {
            OFFSET 0.428676479 0.7547055559999993 0.7381844503
            CHANNELS 3 Yrotation Xrotation Zrotation
            End Site
            {
              OFFSET 0.428676479 0.7547055559999993 0.7381844503
            }
          }
          JOINT jaw
          {
            OFFSET -0.18933892286100001 1.5626303011000007 1.137441874206
            CHANNELS 3 Yrotation Xrotation Zrotation
            End Site
            {
              OFFSET -0.18933892286100001 1.5626303011000007 1.137441874206
            }
          }
        }
      }
      JOINT rightShoulder
      {
        OFFSET -0.6795351508 2.0665205 0
        CHANNELS 3 Yrotation Xrotation Zrotation
        JOINT rightUpperArm
        {
          OFFSET -0.7287400483531672 0 0
          CHANNELS 3 Yrotation Xrotation Zrotation
          JOINT rightLowerArm
          {
            OFFSET -1.9872982039174532 0 0
            CHANNELS 3 Yrotation Xrotation Zrotation
            JOINT rightHand
            {
              OFFSET -2.6451847532219275 0 0
              CHANNELS 3 Yrotation Xrotation Zrotation
              JOINT rightLittleProximal
              {
                OFFSET -0.8008804099999995 -0.09592044000000044 -0.26183688629999996
                CHANNELS 3 Yrotation Xrotation Zrotation
                JOINT rightLittleIntermediate
                {
                  OFFSET -0.2473955153999997 -0.02541697026000067 0.002370178700999967
                  CHANNELS 3 Yrotation Xrotation Zrotation
                  JOINT rightLittleDistal
                  {
                    OFFSET -0.163687229200001 -0.015790700860001117 -0.0004274845300000635
                    CHANNELS 3 Yrotation Xrotation Zrotation
                    End Site
                    {
                      OFFSET -0.163687229200001 -0.015790700860001117 -0.0004274845300000635
                    }
                  }
                }
              }
              JOINT rightRingProximal
              {
                OFFSET -0.8393382799999985 -0.06223833561000025 -0.09213143500000005
                CHANNELS 3 Yrotation Xrotation Zrotation
                JOINT rightRingIntermediate
                {
                  OFFSET -0.3284497260000011 -0.03264224524000103 0.009408593183000052
                  CHANNELS 3 Yrotation Xrotation Zrotation
                  JOINT rightRingDistal
                  {
                    OFFSET -0.19447660429999902 -0.021730899850000318 0.003074347969000052
                    CHANNELS 3 Yrotation Xrotation Zrotation
                    End Site
                    {
                      OFFSET -0.19447660429999902 -0.021730899850000318 0.003074347969000052
                    }
                  }
                }
              }
              JOINT rightMiddleProximal
              {
                OFFSET -0.8473005199999989 -0.06735503500000095 0.10541820299999995
                CHANNELS 3 Yrotation Xrotation Zrotation
                JOINT rightMiddleIntermediate
                {
                  OFFSET -0.3450455799999995 -0.02481901642000084 0.019012570390000032
                  CHANNELS 3 Yrotation Xrotation Zrotation
                  JOINT rightMiddleDistal
                  {
                    OFFSET -0.23542332000000088 -0.025003910029999243 0.0075583457949999905
                    CHANNELS 3 Yrotation Xrotation Zrotation
                    End Site
                    {
                      OFFSET -0.23542332000000088 -0.025003910029999243 0.0075583457949999905
                    }
                  }
                }
              }
              JOINT rightIndexProximal
              {
                OFFSET -0.8008568281999987 -0.09897839600000169 0.29462796
                CHANNELS 3 Yrotation Xrotation Zrotation
                JOINT rightIndexIntermediate
                {
                  OFFSET -0.30524754480000016 -0.024634122809999992 0.02743375304999998
                  CHANNELS 3 Yrotation Xrotation Zrotation
                  JOINT rightIndexDistal
                  {
                    OFFSET -0.23067378950000017 -0.016876459159999913 0.008484125099999983
                    CHANNELS 3 Yrotation Xrotation Zrotation
                    End Site
                    {
                      OFFSET -0.23067378950000017 -0.016876459159999913 0.008484125099999983
                    }
                  }
                }
              }
              JOINT rightThumbProximal
              {
                OFFSET -0.25574064999999935 -0.12833189930000155 0.22385698609999993
                CHANNELS 3 Yrotation Xrotation Zrotation
                JOINT rightThumbIntermediate
                {
                  OFFSET -0.22791743260000086 -0.07103586192999978 0.27385039
                  CHANNELS 3 Yrotation Xrotation Zrotation
                  JOINT rightThumbDistal
                  {
                    OFFSET -0.13610267659999975 -0.03369390969999997 0.14246511509999996
                    CHANNELS 3 Yrotation Xrotation Zrotation
                    End Site
                    {
                      OFFSET -0.13610267659999975 -0.03369390969999997 0.14246511509999996
                    }
                  }
                }
              }
            }
          }
        }
      }
      JOINT leftShoulder
      {
        OFFSET 0.6795338396 2.0665205 0
        CHANNELS 3 Yrotation Xrotation Zrotation
        JOINT leftUpperArm
        {
          OFFSET 0.7287383950230443 0 0
          CHANNELS 3 Yrotation Xrotation Zrotation
          JOINT leftLowerArm
          {
            OFFSET 1.9872997282019604 0 0
            CHANNELS 3 Yrotation Xrotation Zrotation
            JOINT leftHand
            {
              OFFSET 2.6451820781302327 0 0
              CHANNELS 3 Yrotation Xrotation Zrotation
              JOINT leftLittleProximal
              {
                OFFSET 0.8008804099999995 -0.09592306899999814 -0.2618342639000001
                CHANNELS 3 Yrotation Xrotation Zrotation
                JOINT leftLittleIntermediate
                {
                  OFFSET 0.2473981400000007 -0.02542352681000093 0.0023609995859999455
                  CHANNELS 3 Yrotation Xrotation Zrotation
                  JOINT leftLittleDistal
                  {
                    OFFSET 0.1636846068000002 -0.015794634789999318 -0.00043272972159996703
                    CHANNELS 3 Yrotation Xrotation Zrotation
                    End Site
                    {
                      OFFSET 0.1636846068000002 -0.015794634789999318 -0.00043272972159996703
                    }
                  }
                }
              }
              JOINT leftRingProximal
              {
                OFFSET 0.8393409199999996 -0.062242267999998324 -0.0921281570000001
                CHANNELS 3 Yrotation Xrotation Zrotation
                JOINT leftRingIntermediate
                {
                  OFFSET 0.3284471036000003 -0.03264224524000103 0.009405970574000042
                  CHANNELS 3 Yrotation Xrotation Zrotation
                  JOINT leftRingDistal
                  {
                    OFFSET 0.1944779099999996 -0.021732211159998904 0.003073036670000001
                    CHANNELS 3 Yrotation Xrotation Zrotation
                    End Site
                    {
                      OFFSET 0.1944779099999996 -0.021732211159998904 0.003073036670000001
                    }
                  }
                }
              }
              JOINT leftMiddleProximal
              {
                OFFSET 0.8473005200000001 -0.06736028199999788 0.1054214809999999
                CHANNELS 3 Yrotation Xrotation Zrotation
                JOINT leftMiddleIntermediate
                {
                  OFFSET 0.3450455799999995 -0.024824261000000014 0.019013225990000007
                  CHANNELS 3 Yrotation Xrotation Zrotation
                  JOINT leftMiddleDistal
                  {
                    OFFSET 0.2354259489999998 -0.025005222000000327 0.0075590014499999705
                    CHANNELS 3 Yrotation Xrotation Zrotation
                    End Site
                    {
                      OFFSET 0.2354259489999998 -0.025005222000000327 0.0075590014499999705
                    }
                  }
                }
              }
              JOINT leftIndexProximal
              {
                OFFSET 0.8008594516999996 -0.09898495199999946 0.29463124239999994
                CHANNELS 3 Yrotation Xrotation Zrotation
                JOINT leftIndexIntermediate
                {
                  OFFSET 0.30524754480000016 -0.024632811499998963 0.02743047472
                  CHANNELS 3 Yrotation Xrotation Zrotation
                  JOINT leftIndexDistal
                  {
                    OFFSET 0.23067378950000017 -0.016876459159999913 0.008481502700000004
                    CHANNELS 3 Yrotation Xrotation Zrotation
                    End Site
                    {
                      OFFSET 0.23067378950000017 -0.016876459159999913 0.008481502700000004
                    }
                  }
                }
              }
              JOINT leftThumbProximal
              {
                OFFSET 0.25574326469999953 -0.12833321050000013 0.22385764169999997
                CHANNELS 3 Yrotation Xrotation Zrotation
                JOINT leftThumbIntermediate
                {
                  OFFSET 0.22804987480000094 -0.07138466829999968 0.273648441
                  CHANNELS 3 Yrotation Xrotation Zrotation
                  JOINT leftThumbDistal
                  {
                    OFFSET 0.13614857189999907 -0.033867001519998885 0.14238119169999996
                    CHANNELS 3 Yrotation Xrotation Zrotation
                    End Site
                    {
                      OFFSET 0.13614857189999907 -0.033867001519998885 0.14238119169999996
                    }
                  }
                }
              }
            }
          }
        }
      }
    }
  }
  JOINT rightUpperLeg
  {
    OFFSET -0.9749898906000001 -1.8495733739999998 0
    CHANNELS 3 Yrotation Xrotation Zrotation
    JOINT rightLowerLeg
    {
      OFFSET 0 -4.1566544686813165 0
      CHANNELS 3 Yrotation Xrotation Zrotation
      JOINT rightFoot
      {
        OFFSET 0.14539718599999998 -4.225553926 -0.3666210900000001
        CHANNELS 3 Yrotation Xrotation Zrotation
        JOINT rightToes
        {
          OFFSET 0.1706738473 -0.9584117400000015 1.0093348617
          CHANNELS 3 Yrotation Xrotation Zrotation
          End Site
          {
            OFFSET 0.1706738473 -0.9584117400000015 1.0093348617
          }
        }
      }
    }
  }
  JOINT leftUpperLeg
  {
    OFFSET 0.9749898906000001 -1.8495733739999998 0
    CHANNELS 3 Yrotation Xrotation Zrotation
    JOINT leftLowerLeg
    {
      OFFSET 0 -4.156653488267941 0
      CHANNELS 3 Yrotation Xrotation Zrotation
      JOINT leftFoot
      {
        OFFSET -0.14537357999999995 -4.225555399999999 -0.36661124279999996
        CHANNELS 3 Yrotation Xrotation Zrotation
        JOINT leftToes
        {
          OFFSET -0.17066467000000002 -0.9584157000000019 1.0093348617
          CHANNELS 3 Yrotation Xrotation Zrotation
          End Site
          {
            OFFSET -0.17066467000000002 -0.9584157000000019 1.0093348617
          }
        }
      }
    }
  }
}
MOTION
Frames: 4
Frame Time: 0.03333333333333333
0.05444291606545448 -0.3007638924877938 0.027574297040700912 1.5086632216709233 -0.8959905312015014 -5.402564288125523 -1.158784118142062 1.2968982479185092 3.0057699382315812 1.2666110458998674 1.3390445157395015 11.80854071286975 -0.3326688989078803 1.0447750321691396 -2.165939356709926 0.43950270885397696 1.5774502509186703 -8.134685760650111 0 0 0 0 0 0 0 0 0 3.405170628182222 4.498131920277126 5.695669918948923 1.3394165505370705 -1.6742114181103014 67.3013503640321 17.735273116796094 0.035179525190691605 -0.2254615128873328 -9.163839761199466 -11.056648216170666 12.027361090491722 -15.602419703877008 5.21447228218887 35.64273435767532 -3.4992845729648 1.0430394491737465 45.609296026189284 -0.03323279387969027 -0.8197417533681164 22.123055306265794 -11.331864612728934 2.4322573080113603 26.554272638266088 -3.4338337293716132 1.5389445872399787 40.160234045265426 0.2496785430443055 -0.18717618430816815 17.812872063529923 -8.623129404987298 0.8982427419875699 15.80724827135175 -3.4932519002731754 0.7745390808785253 33.39060116607288 -1.5230941854104871 0.18753151612726227 15.913372193460125 -4.588715125077294 0.3364930714229668 7.877063586344294 -2.5349359653457118 0.33653650790640033 20.58327090497835 -0.04944783118777769 -0.2147136489509564 13.84581226916622 -0.4730814278464567 18.648793068741895 -11.237342916060728 -31.738202540125968 0.8893837624623088 3.1664103459769253 -7.698762479135257 1.6458879695407345 1.106897026171904 -13.854266202426311 3.4969804347830276 -5.725298130475093 2.78356222602567 3.3703675065650884 -83.5189338826169 -14.505515298880319 0.023569110857994194 0.1853870251527138 4.035413543262996 -27.54269751733408 -11.331092838630877 15.842052315651253 5.385671300422733 -35.62557104920797 3.4619138499713937 1.3046723662734463 -45.60492038649102 2.573256060181888 0.5107448848785889 -20.5361046642213 11.34836071253722 2.4405380736861217 -26.55377269893558 3.4098100702460945 1.5344377095612234 -40.16007451669144 1.5898254418248274 0.5033884830545181 -19.35105432483817 8.564242274651644 0.8815984981435353 -15.807289950093802 3.586449907933679 0.7958188792991443 -33.39146071598384 1.3339358459408197 0.15408158277153577 -12.278668254899605 4.5649888481846075 0.33322535706661516 -7.876685864047434 2.5749990948837613 0.34269173705770306 -20.58372619654008 0.6785047181970688 0.022927646652372315 -10.178987220644911 0.36210308268871905 18.625579133447026 11.179679467390418 31.85289852949667 0.923465549108564 -3.123019307714097 8.671560972310866 1.8057919997035636 -0.29954506169000844 -4.832729479796221 -1.6077739177410606 10.752344994713933 -5.161664849181412 12.398191473327943 2.22263989985727 0.9236293306043136 -9.85058861064154 -7.926900782525246 -4.1080367480333683e-7 -0.548658538018035 0.000002185671714184554 11.672778355625455 -19.196370172581535 11.913088133749298 10.264316277979052 21.7347449308599 6.051689794057123 3.238885440935029 -1.4957572042855625 -8.908648866037007 0.000004815576703165265 -0.4419538806116073 0.00000407300125302457
0.05470488220453262 -0.30092601712158284 0.030215101316571236 1.7073655909873715 -0.9336739671173244 -5.420112072554552 -1.1366514940651113 1.3180435090101938 3.0114481628250935 1.287008478454631 1.3567880672977326 11.8105998096667 -0.3405294201039508 1.0680407968865036 -2.1806935220066928 0.40080987481359703 1.65094803210808 -8.128531333797177 0 0 0 0 0 0 0 0 0 3.4151860363828965 4.494669456864579 5.664435098480643 1.1420274111549007 -1.7152877883789326 67.27714423186767 17.69481020178846 0.03502940107301279 -0.22496676805271223 -9.213642595978508 -10.868016580183234 11.989569639965811 -15.60549855981252 5.216605730850633 35.68496039387654 -3.5022324614913476 1.0453781101256185 45.65176857574397 -0.037546125413514195 -0.8202015575622053 22.165561393831943 -11.333982187595838 2.436594977836449 26.596468175341922 -3.4363803720000057 1.5416464764497848 40.202878259663756 0.24586176945692445 -0.1869360591904667 17.855343020131585 -8.626361788311003 0.9005731908353398 15.849653526784406 -3.496396229572735 0.7764751899667299 33.43314693578903 -1.5266573089213182 0.18856550828300667 15.955875167624715 -4.592429328817759 0.3370193519247733 7.91954163288008 -2.538443796864225 0.33785379673308813 20.625724900017612 -0.05334364918310721 -0.2146841135115203 13.88834172433658 -0.4730879902412297 18.64880027741205 -11.237348921301942 -31.738194933930984 0.8893919276565062 3.1664158877009942 -7.6987692505514635 1.6458661893270574 1.1068996948176424 -13.89807564890571 3.472943451543136 -5.7403223866313775 2.7713446043412864 3.347177385571084 -83.49848241849669 -14.585619157960949 0.023817467296322628 0.18638063683589323 4.036984157701306 -27.48741191103584 -11.373771062361612 15.842043129368925 5.3856434297438724 -35.62541193863071 3.4618840146886503 1.3046604103429227 -45.60442760856212 2.5732200231871962 0.5107341589210135 -20.535760502703972 11.348355850719232 2.440522905445665 -26.55361677573634 3.4097840768744176 1.5344140088438476 -40.159585023618 1.5897889675759813 0.5033662840829891 -19.3507140853179 8.564237208529955 0.881597857737493 -15.807144045624122 3.586411559663337 0.7957843514969245 -33.39094824592928 1.3339105596598655 0.15407181770014872 -12.278342555391152 4.564983741706964 0.33320844139018235 -7.876551121620293 2.5749500515904793 0.34266105401852115 -20.58318098715535 0.6784805474231542 0.022935320610643285 -10.17866603643862 0.283427220560529 18.631136349459215 11.168408160141498 31.82734090444882 0.9294803169960627 -3.1317163639672456 8.652346569832577 1.8098466679127374 -0.3073319062130868 -4.884530139999108 -1.521744838534119 10.772244568142597 -5.283264344079302 12.360743403353354 2.1990979893293314 0.9065525106499872 -9.869944416693423 -7.909545988468803 -4.112110477070833e-7 -0.5528197562020981 0.0000011171677425198533 11.676297248668819 -19.19852722817764 11.899093076780963 10.05740855563405 21.768300231802975 6.007408905092729 3.2355395303753296 -1.5133667006511426 -8.889647342973468 0.00002346087841022114 -0.4563957722639516 0.000002123447775163842
0.05491338670253754 -0.3013275140087899 0.034768734127283096 2.057367212251468 -0.9529374979168497 -5.43990457960879 -1.0717943390607074 1.3557828941063994 3.0363970011185497 1.3451327966890423 1.3775579686273092 11.81929237337944 -0.35165782854496913 1.09354146954619 -2.2209043640362616 0.3443130222447912 1.7565191123507713 -8.121509225817215 0 0 0 0 0 0 0 0 0 3.4280287199328607 4.4896303730360065 5.614649115641679 0.6338119304875849 -1.6568489990926334 67.1956330353838 18.04063025722086 0.0363930946294551 -0.22920430884557771 -9.157969042040376 -10.188473298050363 12.195228722444408 -15.624927942436747 5.23021162000406 35.9539485977302 -3.5209204093520756 1.0601987074163683 45.922160495360906 -0.06510414423229799 -0.8230116155408562 22.43633717007251 -11.347258454635039 2.4640845171801677 26.865401963834742 -3.4525890127642924 1.5589389477816822 40.47441758965931 0.2215635202894547 -0.18535368810786462 18.125953770640407 -8.64683454200951 0.9153859958931934 16.119842931386486 -3.516448504764951 0.7889222366973044 33.70401508032386 -1.5492917921660412 0.19511324180347198 16.226533864586685 -4.616097874099671 0.34044629914755853 8.190131432892812 -2.560746570813663 0.34624339289254874 20.896371220273725 -0.07819323728505168 -0.21442013552147776 14.159051326454566 -0.4730716852107626 18.648785860072046 -11.237330021771394 -31.738199635372794 0.8893788526723426 3.1663879904219407 -7.698760328590059 1.6458772929653729 1.1068986273593477 -13.8999227078076 3.3448440999952616 -5.783958128087428 2.7052205672222254 3.2075550801152737 -83.35732908650937 -14.983838983821576 0.02513222880573251 0.19134245214949658 4.124236769520409 -27.138886153020792 -11.52698299400636 15.841973875475363 5.385597550321455 -35.624362802369525 3.461650274977265 1.304437837896672 -45.60100709617247 2.5730617081598157 0.5106398665484706 -20.533518460219756 11.34830372763693 2.44041352320969 -26.55255894127796 3.4095701320985237 1.5341823396833305 -40.156166977785205 1.5896284189708412 0.5032927499903388 -19.348458768586138 8.56415411606455 0.881531148775354 -15.80607577522595 3.5861663407668796 0.795650349472809 -33.38759013206046 1.3337169387460044 0.1540269677411853 -12.276067046047816 4.564883196228234 0.3332011575105917 -7.8754810646375555 2.5746760748140227 0.34255126210086184 -20.579798208217685 0.6782892217226268 0.02291434645872504 -10.176403827999977 -0.22422300665513686 18.66457358098402 11.097699973860143 31.6620930805587 0.9682606195507065 -3.187833462329547 8.528297723889933 1.8359046470094778 -0.3572033431157262 -4.901121965776818 -1.4527413742020139 10.836166812117792 -5.5930684961517905 12.318666395144376 2.079692063259763 0.8733195118861327 -9.912676632586233 -7.841405632962366 0.0000029762018808932077 -0.5401912825169496 0.0000042789932266840755 11.687110411566254 -19.244408879942736 11.854441642310809 9.690791910623426 21.815865062891724 5.919504181475117 3.227930334919613 -1.5346528309494123 -8.848663112508627 0.000012683852321688583 -0.509157229900081 -0.0000011706357544503862
0.055911969393491745 -0.3017929070751961 0.04019172862172127 2.4253853505032708 -0.9818558385882249 -5.462953996075413 -0.9874065956401987 1.386208998250086 3.0674320490529206 1.4213776279256667 1.386711697935248 11.834003553512357 -0.36309723555795703 1.1189831170064877 -2.2562790007127234 0.3127952274863088 1.837175074451472 -8.129830666124574 0 0 0 0 0 0 0 0 0 3.457706736604348 4.483857821551941 5.59942338917668 -0.03306068200009708 -1.465777923273953 67.06817183142226 18.831156276967032 0.03962151365146832 -0.2388847235102683 -8.95973365607889 -9.229177826700756 12.64286180899186 -15.660132308570649 5.255244828737919 36.44402810452873 -3.554801060014418 1.0874403652794074 46.414792426679604 -0.11532288936502808 -0.8277967663083471 22.92967439596346 -11.37089267894407 2.5142985713817905 27.35540095426168 -3.481902580935364 1.590646950677397 40.969171288859805 0.17731220828723743 -0.1821908140048732 18.618990447413037 -8.683862296958806 0.9426264502598087 16.612049297214426 -3.552826107157727 0.8118574751334923 34.19757036358513 -1.5904580208729973 0.20733349945092783 16.719655828156366 -4.6591959055196694 0.34700385232314357 8.68310355461412 -2.601272466864657 0.36181793562819436 21.3893863083722 -0.12345980111166771 -0.21363884714278863 14.652344944175132 -0.47309429761268507 18.648794870909406 -11.237349986528573 -31.738199635372794 0.8894040420296296 3.1663928927162313 -7.698764171989329 1.6458899980900596 1.1069104761463768 -13.855688085259978 3.116691964364956 -5.787955523829733 2.6451482989808226 2.993617792118251 -83.14064602414037 -15.676245857229704 0.02750472261183753 0.19997533312183788 4.276582883429962 -26.5345723515621 -11.730444920203196 15.84205066567637 5.385657150693306 -35.62515115308612 3.461824784016696 1.3045977484579818 -45.60355554769043 2.573183193152233 0.5107136141764537 -20.535209285883013 11.348349147987923 2.440500687178262 -26.553344673992147 3.409732932750903 1.5343608423706905 -40.158709746092704 1.5897439466138876 0.503346806620051 -19.350150778805286 8.564218124120577 0.8815773113770269 -15.80686395646596 3.5863529714235023 0.7957749057149148 -33.390112751979295 1.3338568929943457 0.1540607452831442 -12.277765806690129 4.564953682109987 0.3332122300748067 -7.876282572782272 2.574878039071624 0.3426370945671239 -20.58230881131093 0.6784236282994239 0.022924736818130172 -10.178074218104927 -1.149326742743584 18.72256101839056 10.974034451366839 31.362649372891088 1.0408267423515951 -3.2895698969590605 8.301390811741413 1.8839991510189136 -0.4484933925319622 -4.928204184162082 -1.3671336039780437 10.896581170763708 -5.906608775732448 12.278035210943624 1.96276261173832 0.8392894395144019 -9.962987096848872 -7.7689250987130665 -0.0000021233919656072653 -0.5231585652969041 0.000002002225391552889 11.68385192090271 -19.281665057280474 11.801472094814288 9.321344783742022 21.873055735871933 5.851727552937347 3.2241783607286214 -1.5653274422202312 -8.816742820392463 0.000006342268205409067 -0.5495466634779174 -0.000006225011585205345
